<svg width="3377" height="745" viewBox="0 0 3377 745" fill="none" xmlns="http://www.w3.org/2000/svg">
<path d="M326.5 489.5C326.5 529.5 321.5 565.333 311.5 597C301.833 628.667 287.333 655.5 268 677.5C249 699.167 225.5 715.833 197.5 727.5C169.5 739.167 137.333 745 101 745C68 745 34.3333 740.333 1.04308e-07 731C0.666667 721.333 1.5 711.833 2.5 702.5C3.5 692.833 4.33333 683.333 5 674C5.66667 668.333 7.66667 663.833 11 660.5C14.6667 656.833 20.1667 655 27.5 655C33.5 655 41.3333 656.5 51 659.5C61 662.5 74.3333 664 91 664C113 664 132.667 660.667 150 654C167.333 647.333 181.833 637 193.5 623C205.167 609 214 591.167 220 569.5C226.333 547.5 229.5 521.5 229.5 491.5V20.5H326.5V489.5ZM736.32 509C695.32 510.333 660.32 513.667 631.32 519C602.654 524 579.154 530.667 560.82 539C542.82 547.333 529.654 557.167 521.32 568.5C513.32 579.833 509.32 592.5 509.32 606.5C509.32 619.833 511.487 631.333 515.82 641C520.154 650.667 525.987 658.667 533.32 665C540.987 671 549.82 675.5 559.82 678.5C570.154 681.167 581.154 682.5 592.82 682.5C608.487 682.5 622.82 681 635.82 678C648.82 674.667 660.987 670 672.32 664C683.987 658 694.987 650.833 705.32 642.5C715.987 634.167 726.32 624.667 736.32 614V509ZM448.82 302C476.82 275 506.987 254.833 539.32 241.5C571.654 228.167 607.487 221.5 646.82 221.5C675.154 221.5 700.32 226.167 722.32 235.5C744.32 244.833 762.82 257.833 777.82 274.5C792.82 291.167 804.154 311.333 811.82 335C819.487 358.667 823.32 384.667 823.32 413V737H783.82C775.154 737 768.487 735.667 763.82 733C759.154 730 755.487 724.333 752.82 716L742.82 668C729.487 680.333 716.487 691.333 703.82 701C691.154 710.333 677.82 718.333 663.82 725C649.82 731.333 634.82 736.167 618.82 739.5C603.154 743.167 585.654 745 566.32 745C546.654 745 528.154 742.333 510.82 737C493.487 731.333 478.32 723 465.32 712C452.654 701 442.487 687.167 434.82 670.5C427.487 653.5 423.82 633.5 423.82 610.5C423.82 590.5 429.32 571.333 440.32 553C451.32 534.333 469.154 517.833 493.82 503.5C518.487 489.167 550.654 477.5 590.32 468.5C629.987 459.167 678.654 453.833 736.32 452.5V413C736.32 373.667 727.82 344 710.82 324C693.82 303.667 668.987 293.5 636.32 293.5C614.32 293.5 595.82 296.333 580.82 302C566.154 307.333 553.32 313.5 542.32 320.5C531.654 327.167 522.32 333.333 514.32 339C506.654 344.333 498.987 347 491.32 347C485.32 347 480.154 345.5 475.82 342.5C471.487 339.167 467.82 335.167 464.82 330.5L448.82 302ZM1048.39 0.499975V434H1071.39C1078.06 434 1083.56 433.167 1087.89 431.5C1092.56 429.5 1097.39 425.667 1102.39 420L1262.39 248.5C1267.06 242.833 1271.89 238.5 1276.89 235.5C1282.22 232.167 1289.22 230.5 1297.89 230.5H1378.39L1191.89 429C1182.89 440.333 1173.22 449.167 1162.89 455.5C1168.89 459.5 1174.22 464.167 1178.89 469.5C1183.89 474.5 1188.56 480.333 1192.89 487L1390.89 737H1311.39C1303.72 737 1297.06 735.833 1291.39 733.5C1286.06 730.833 1281.39 726.167 1277.39 719.5L1110.89 512C1105.89 505 1100.89 500.5 1095.89 498.5C1091.22 496.167 1083.89 495 1073.89 495H1048.39V737H958.891V0.499975H1048.39ZM1883.2 230.5V737H1830.2C1817.54 737 1809.54 730.833 1806.2 718.5L1799.2 664C1777.2 688.333 1752.54 708 1725.2 723C1697.87 737.667 1666.54 745 1631.2 745C1603.54 745 1579.04 740.5 1557.7 731.5C1536.7 722.167 1519.04 709.167 1504.7 692.5C1490.37 675.833 1479.54 655.667 1472.2 632C1465.2 608.333 1461.7 582.167 1461.7 553.5V230.5H1550.7V553.5C1550.7 591.833 1559.37 621.5 1576.7 642.5C1594.37 663.5 1621.2 674 1657.2 674C1683.54 674 1708.04 667.833 1730.7 655.5C1753.7 642.833 1774.87 625.5 1794.2 603.5V230.5H1883.2ZM2319.32 314C2315.32 321.333 2309.15 325 2300.82 325C2295.82 325 2290.15 323.167 2283.82 319.5C2277.49 315.833 2269.65 311.833 2260.32 307.5C2251.32 302.833 2240.49 298.667 2227.82 295C2215.15 291 2200.15 289 2182.82 289C2167.82 289 2154.32 291 2142.32 295C2130.32 298.667 2119.99 303.833 2111.32 310.5C2102.99 317.167 2096.49 325 2091.82 334C2087.49 342.667 2085.32 352.167 2085.32 362.5C2085.32 375.5 2088.99 386.333 2096.32 395C2103.99 403.667 2113.99 411.167 2126.32 417.5C2138.65 423.833 2152.65 429.5 2168.32 434.5C2183.99 439.167 2199.99 444.333 2216.32 450C2232.99 455.333 2249.15 461.333 2264.82 468C2280.49 474.667 2294.49 483 2306.82 493C2319.15 503 2328.99 515.333 2336.32 530C2343.99 544.333 2347.82 561.667 2347.82 582C2347.82 605.333 2343.65 627 2335.32 647C2326.99 666.667 2314.65 683.833 2298.32 698.5C2281.99 712.833 2261.99 724.167 2238.32 732.5C2214.65 740.833 2187.32 745 2156.32 745C2120.99 745 2088.99 739.333 2060.32 728C2031.65 716.333 2007.32 701.5 1987.32 683.5L2008.32 649.5C2010.99 645.167 2014.15 641.833 2017.82 639.5C2021.49 637.167 2026.15 636 2031.82 636C2037.82 636 2044.15 638.333 2050.82 643C2057.49 647.667 2065.49 652.833 2074.82 658.5C2084.49 664.167 2096.15 669.333 2109.82 674C2123.49 678.667 2140.49 681 2160.82 681C2178.15 681 2193.32 678.833 2206.32 674.5C2219.32 669.833 2230.15 663.667 2238.82 656C2247.49 648.333 2253.82 639.5 2257.82 629.5C2262.15 619.5 2264.32 608.833 2264.32 597.5C2264.32 583.5 2260.49 572 2252.82 563C2245.49 553.667 2235.65 545.833 2223.32 539.5C2210.99 532.833 2196.82 527.167 2180.82 522.5C2165.15 517.5 2148.99 512.333 2132.32 507C2115.99 501.667 2099.82 495.667 2083.82 489C2068.15 482 2054.15 473.333 2041.82 463C2029.49 452.667 2019.49 440 2011.82 425C2004.49 409.667 2000.82 391.167 2000.82 369.5C2000.82 350.167 2004.82 331.667 2012.82 314C2020.82 296 2032.49 280.333 2047.82 267C2063.15 253.333 2081.99 242.5 2104.32 234.5C2126.65 226.5 2152.15 222.5 2180.82 222.5C2214.15 222.5 2243.99 227.833 2270.32 238.5C2296.99 248.833 2319.99 263.167 2339.32 281.5L2319.32 314ZM2546.44 298C2568.1 275 2592.1 256.667 2618.44 243C2644.77 229.333 2675.1 222.5 2709.44 222.5C2737.1 222.5 2761.44 227.167 2782.44 236.5C2803.77 245.5 2821.44 258.5 2835.44 275.5C2849.77 292.167 2860.6 312.333 2867.94 336C2875.27 359.667 2878.94 385.833 2878.94 414.5V737H2789.44V414.5C2789.44 376.167 2780.6 346.5 2762.94 325.5C2745.6 304.167 2719.1 293.5 2683.44 293.5C2657.1 293.5 2632.44 299.833 2609.44 312.5C2586.77 325.167 2565.77 342.333 2546.44 364V737H2456.94V0.499975H2546.44V298ZM3289.05 509C3248.05 510.333 3213.05 513.667 3184.05 519C3155.39 524 3131.89 530.667 3113.55 539C3095.55 547.333 3082.39 557.167 3074.05 568.5C3066.05 579.833 3062.05 592.5 3062.05 606.5C3062.05 619.833 3064.22 631.333 3068.55 641C3072.89 650.667 3078.72 658.667 3086.05 665C3093.72 671 3102.55 675.5 3112.55 678.5C3122.89 681.167 3133.89 682.5 3145.55 682.5C3161.22 682.5 3175.55 681 3188.55 678C3201.55 674.667 3213.72 670 3225.05 664C3236.72 658 3247.72 650.833 3258.05 642.5C3268.72 634.167 3279.05 624.667 3289.05 614V509ZM3001.55 302C3029.55 275 3059.72 254.833 3092.05 241.5C3124.39 228.167 3160.22 221.5 3199.55 221.5C3227.89 221.5 3253.05 226.167 3275.05 235.5C3297.05 244.833 3315.55 257.833 3330.55 274.5C3345.55 291.167 3356.89 311.333 3364.55 335C3372.22 358.667 3376.05 384.667 3376.05 413V737H3336.55C3327.89 737 3321.22 735.667 3316.55 733C3311.89 730 3308.22 724.333 3305.55 716L3295.55 668C3282.22 680.333 3269.22 691.333 3256.55 701C3243.89 710.333 3230.55 718.333 3216.55 725C3202.55 731.333 3187.55 736.167 3171.55 739.5C3155.89 743.167 3138.39 745 3119.05 745C3099.39 745 3080.89 742.333 3063.55 737C3046.22 731.333 3031.05 723 3018.05 712C3005.39 701 2995.22 687.167 2987.55 670.5C2980.22 653.5 2976.55 633.5 2976.55 610.5C2976.55 590.5 2982.05 571.333 2993.05 553C3004.05 534.333 3021.89 517.833 3046.55 503.5C3071.22 489.167 3103.39 477.5 3143.05 468.5C3182.72 459.167 3231.39 453.833 3289.05 452.5V413C3289.05 373.667 3280.55 344 3263.55 324C3246.55 303.667 3221.72 293.5 3189.05 293.5C3167.05 293.5 3148.55 296.333 3133.55 302C3118.89 307.333 3106.05 313.5 3095.05 320.5C3084.39 327.167 3075.05 333.333 3067.05 339C3059.39 344.333 3051.72 347 3044.05 347C3038.05 347 3032.89 345.5 3028.55 342.5C3024.22 339.167 3020.55 335.167 3017.55 330.5L3001.55 302Z" fill="#F3F3F3"/>
<path d="M311.5 597L310.546 596.699L310.544 596.708L311.5 597ZM268 677.5L267.249 676.84L267.248 676.841L268 677.5ZM197.5 727.5L197.885 728.423L197.885 728.423L197.5 727.5ZM1.04308e-07 731L-0.99763 730.931L-1.05408 731.75L-0.262324 731.965L1.04308e-07 731ZM2.5 702.5L3.49432 702.607L3.49469 702.603L2.5 702.5ZM5 674L4.00685 673.883L4.00417 673.906L4.00254 673.929L5 674ZM11 660.5L10.2929 659.793L10.2929 659.793L11 660.5ZM51 659.5L50.7036 660.455L50.7127 660.458L51 659.5ZM150 654L149.641 653.067L149.641 653.067L150 654ZM193.5 623L192.732 622.36L192.732 622.36L193.5 623ZM220 569.5L219.039 569.223L219.036 569.233L220 569.5ZM229.5 20.5V19.5H228.5V20.5H229.5ZM326.5 20.5H327.5V19.5H326.5V20.5ZM325.5 489.5C325.5 529.418 320.51 565.147 310.546 596.699L312.454 597.301C322.49 565.519 327.5 529.582 327.5 489.5H325.5ZM310.544 596.708C300.913 628.257 286.477 654.96 267.249 676.84L268.751 678.16C288.19 656.04 302.754 629.077 312.456 597.292L310.544 596.708ZM267.248 676.841C248.354 698.386 224.982 714.966 197.115 726.577L197.885 728.423C226.018 716.701 249.646 699.947 268.752 678.159L267.248 676.841ZM197.115 726.577C169.259 738.184 137.227 744 101 744V746C137.44 746 169.741 740.15 197.885 728.423L197.115 726.577ZM101 744C68.0952 744 34.5168 739.347 0.262325 730.035L-0.262324 731.965C34.1499 741.32 67.9048 746 101 746V744ZM0.99763 731.069C1.66346 721.414 2.4957 711.927 3.49431 702.607L1.50569 702.393C0.504304 711.74 -0.330123 721.252 -0.99763 730.931L0.99763 731.069ZM3.49469 702.603C4.49574 692.926 5.33001 683.416 5.99746 674.071L4.00254 673.929C3.33666 683.251 2.50426 692.741 1.50531 702.397L3.49469 702.603ZM5.99315 674.117C6.63925 668.625 8.56416 664.35 11.7071 661.207L10.2929 659.793C6.76917 663.317 4.69409 668.042 4.00685 673.883L5.99315 674.117ZM11.7071 661.207C15.1201 657.794 20.3208 656 27.5 656V654C20.0125 654 14.2132 655.873 10.2929 659.793L11.7071 661.207ZM27.5 656C33.3539 656 41.0767 657.467 50.7036 660.455L51.2964 658.545C41.59 655.533 33.6461 654 27.5 654V656ZM50.7127 660.458C60.8444 663.497 74.2866 665 91 665V663C74.38 663 61.1556 661.503 51.2873 658.542L50.7127 660.458ZM91 665C113.101 665 132.892 661.651 150.359 654.933L149.641 653.067C132.441 659.682 112.899 663 91 663V665ZM150.359 654.933C167.848 648.207 182.49 637.774 194.268 623.64L192.732 622.36C181.176 636.226 166.818 646.46 149.641 653.067L150.359 654.933ZM194.268 623.64C206.044 609.509 214.934 591.539 220.964 569.767L219.036 569.233C213.066 590.794 204.289 608.491 192.732 622.36L194.268 623.64ZM220.961 569.777C227.327 547.664 230.5 521.566 230.5 491.5H228.5C228.5 521.434 225.34 547.336 219.039 569.223L220.961 569.777ZM230.5 491.5V20.5H228.5V491.5H230.5ZM229.5 21.5H326.5V19.5H229.5V21.5ZM325.5 20.5V489.5H327.5V20.5H325.5ZM736.32 509H737.32V507.967L736.288 508.001L736.32 509ZM631.32 519L631.492 519.985L631.501 519.983L631.32 519ZM560.82 539L560.407 538.09L560.4 538.093L560.82 539ZM521.32 568.5L520.515 567.908L520.509 567.915L520.503 567.923L521.32 568.5ZM515.82 641L514.908 641.409L514.908 641.409L515.82 641ZM533.32 665L532.667 665.757L532.685 665.773L532.704 665.788L533.32 665ZM559.82 678.5L559.533 679.458L559.552 679.463L559.57 679.468L559.82 678.5ZM635.82 678L636.045 678.974L636.057 678.972L636.069 678.969L635.82 678ZM672.32 664L671.863 663.111L671.852 663.116L672.32 664ZM705.32 642.5L704.705 641.712L704.699 641.717L704.693 641.722L705.32 642.5ZM736.32 614L737.05 614.684L737.32 614.395V614H736.32ZM448.82 302L448.126 301.28L447.57 301.816L447.948 302.49L448.82 302ZM539.32 241.5L538.939 240.575L538.939 240.575L539.32 241.5ZM722.32 235.5L722.711 234.579L722.711 234.579L722.32 235.5ZM777.82 274.5L778.564 273.831L778.564 273.831L777.82 274.5ZM811.82 335L810.869 335.308L810.869 335.308L811.82 335ZM823.32 737V738H824.32V737H823.32ZM763.82 733L763.28 733.841L763.302 733.855L763.324 733.868L763.82 733ZM752.82 716L751.841 716.204L751.852 716.255L751.868 716.305L752.82 716ZM742.82 668L743.799 667.796L743.439 666.066L742.141 667.266L742.82 668ZM703.82 701L704.414 701.805L704.42 701.8L704.427 701.795L703.82 701ZM663.82 725L664.232 725.911L664.241 725.907L664.25 725.903L663.82 725ZM618.82 739.5L618.616 738.521L618.604 738.524L618.592 738.526L618.82 739.5ZM510.82 737L510.51 737.95L510.518 737.953L510.526 737.956L510.82 737ZM465.32 712L464.665 712.755L464.674 712.763L465.32 712ZM434.82 670.5L433.902 670.896L433.907 670.907L433.912 670.918L434.82 670.5ZM440.32 553L441.178 553.514L441.182 553.508L440.32 553ZM493.82 503.5L494.323 504.365L494.323 504.365L493.82 503.5ZM590.32 468.5L590.542 469.475L590.549 469.473L590.32 468.5ZM736.32 452.5L736.343 453.5L737.32 453.477V452.5H736.32ZM710.82 324L710.053 324.641L710.058 324.648L710.82 324ZM580.82 302L581.162 302.94L581.174 302.935L580.82 302ZM542.32 320.5L542.85 321.348L542.857 321.344L542.32 320.5ZM514.32 339L514.891 339.821L514.898 339.816L514.32 339ZM475.82 342.5L475.211 343.293L475.23 343.308L475.251 343.322L475.82 342.5ZM464.82 330.5L463.948 330.99L463.963 331.016L463.979 331.041L464.82 330.5ZM736.288 508.001C695.256 509.335 660.203 512.671 631.139 518.016L631.501 519.983C660.437 514.662 695.385 511.332 736.353 509.999L736.288 508.001ZM631.148 518.015C602.432 523.024 578.843 529.709 560.407 538.09L561.234 539.91C579.464 531.624 602.875 524.976 631.492 519.985L631.148 518.015ZM560.4 538.093C542.306 546.469 528.98 556.394 520.515 567.908L522.126 569.092C530.327 557.939 543.334 548.197 561.24 539.907L560.4 538.093ZM520.503 567.923C512.383 579.427 508.32 592.296 508.32 606.5H510.32C510.32 592.704 514.258 580.24 522.137 569.077L520.503 567.923ZM508.32 606.5C508.32 619.939 510.504 631.585 514.908 641.409L516.733 640.591C512.47 631.082 510.32 619.728 510.32 606.5H508.32ZM514.908 641.409C519.295 651.197 525.213 659.319 532.667 665.757L533.974 664.243C526.761 658.014 521.012 650.137 516.733 640.591L514.908 641.409ZM532.704 665.788C540.476 671.87 549.422 676.425 559.533 679.458L560.108 677.542C550.218 674.575 541.498 670.13 533.937 664.212L532.704 665.788ZM559.57 679.468C569.993 682.158 581.077 683.5 592.82 683.5V681.5C581.23 681.5 570.315 680.175 560.07 677.532L559.57 679.468ZM592.82 683.5C608.55 683.5 622.96 681.994 636.045 678.974L635.595 677.026C622.681 680.006 608.424 681.5 592.82 681.5V683.5ZM636.069 678.969C649.141 675.617 661.382 670.922 672.788 664.884L671.852 663.116C660.592 669.078 648.499 673.717 635.572 677.031L636.069 678.969ZM672.778 664.889C684.505 658.858 695.562 651.654 705.948 643.278L704.693 641.722C694.411 650.013 683.469 657.142 671.863 663.111L672.778 664.889ZM705.936 643.288C716.646 634.921 727.017 625.385 737.05 614.684L735.591 613.316C725.623 623.948 715.328 633.413 704.705 641.712L705.936 643.288ZM737.32 614V509H735.32V614H737.32ZM449.514 302.72C477.434 275.797 507.497 255.705 539.702 242.424L538.939 240.575C506.477 253.962 476.207 274.203 448.126 301.28L449.514 302.72ZM539.702 242.424C571.9 229.147 607.602 222.5 646.82 222.5V220.5C607.372 220.5 571.408 227.186 538.939 240.575L539.702 242.424ZM646.82 222.5C675.044 222.5 700.074 227.148 721.93 236.421L722.711 234.579C700.567 225.185 675.263 220.5 646.82 220.5V222.5ZM721.93 236.421C743.804 245.701 762.181 258.618 777.077 275.169L778.564 273.831C763.459 257.049 744.836 243.966 722.711 234.579L721.93 236.421ZM777.077 275.169C791.973 291.72 803.241 311.76 810.869 335.308L812.772 334.692C805.066 310.906 793.667 290.613 778.564 273.831L777.077 275.169ZM810.869 335.308C818.499 358.863 822.32 384.757 822.32 413H824.32C824.32 384.576 820.475 358.471 812.772 334.692L810.869 335.308ZM822.32 413V737H824.32V413H822.32ZM823.32 736H783.82V738H823.32V736ZM783.82 736C775.232 736 768.766 734.675 764.316 732.132L763.324 733.868C768.208 736.659 775.075 738 783.82 738V736ZM764.361 732.159C759.975 729.339 756.407 723.928 753.773 715.695L751.868 716.305C754.567 724.739 758.333 730.661 763.28 733.841L764.361 732.159ZM753.799 715.796L743.799 667.796L741.841 668.204L751.841 716.204L753.799 715.796ZM742.141 667.266C728.828 679.581 715.852 690.56 703.214 700.205L704.427 701.795C717.122 692.107 730.146 681.086 743.499 668.734L742.141 667.266ZM703.227 700.195C690.611 709.491 677.332 717.458 663.39 724.097L664.25 725.903C678.308 719.208 691.696 711.176 704.414 701.805L703.227 700.195ZM663.408 724.089C649.479 730.39 634.549 735.202 618.616 738.521L619.024 740.479C635.091 737.132 650.162 732.276 664.232 725.911L663.408 724.089ZM618.592 738.526C603.014 742.172 585.592 744 566.32 744V746C585.716 746 603.294 744.161 619.048 740.474L618.592 738.526ZM566.32 744C546.745 744 528.345 741.346 511.114 736.044L510.526 737.956C527.963 743.321 546.562 746 566.32 746V744ZM511.131 736.05C493.912 730.42 478.861 722.147 465.966 711.237L464.674 712.763C477.78 723.853 493.062 732.247 510.51 737.95L511.131 736.05ZM465.976 711.245C453.426 700.347 443.342 686.632 435.729 670.082L433.912 670.918C441.632 687.701 451.881 701.653 464.665 712.755L465.976 711.245ZM435.739 670.104C428.471 653.255 424.82 633.396 424.82 610.5H422.82C422.82 633.604 426.503 653.745 433.902 670.896L435.739 670.104ZM424.82 610.5C424.82 590.694 430.264 571.704 441.178 553.514L439.463 552.485C428.376 570.963 422.82 590.306 422.82 610.5H424.82ZM441.182 553.508C452.071 535.028 469.759 518.638 494.323 504.365L493.318 502.635C468.548 517.028 450.569 533.638 439.459 552.492L441.182 553.508ZM494.323 504.365C518.873 490.099 550.935 478.461 590.542 469.475L590.099 467.525C550.372 476.538 518.101 488.235 493.318 502.635L494.323 504.365ZM590.549 469.473C630.127 460.161 678.72 454.832 736.343 453.5L736.297 451.5C678.587 452.835 629.847 458.172 590.091 467.527L590.549 469.473ZM737.32 452.5V413H735.32V452.5H737.32ZM737.32 413C737.32 373.544 728.797 343.604 711.582 323.352L710.058 324.648C726.844 344.396 735.32 373.79 735.32 413H737.32ZM711.588 323.359C694.354 302.746 669.208 292.5 636.32 292.5V294.5C668.766 294.5 693.287 304.587 710.053 324.641L711.588 323.359ZM636.32 292.5C614.241 292.5 595.613 295.343 580.467 301.064L581.174 302.935C596.027 297.324 614.399 294.5 636.32 294.5V292.5ZM580.479 301.06C565.756 306.414 552.855 312.611 541.783 319.656L542.857 321.344C553.785 314.389 566.551 308.253 581.162 302.94L580.479 301.06ZM541.79 319.652C531.112 326.326 521.762 332.504 513.742 338.184L514.898 339.816C522.879 334.163 532.196 328.007 542.85 321.348L541.79 319.652ZM513.749 338.179C506.213 343.422 498.742 346 491.32 346V348C499.232 348 507.094 345.245 514.891 339.821L513.749 338.179ZM491.32 346C485.495 346 480.533 344.546 476.39 341.678L475.251 343.322C479.774 346.454 485.146 348 491.32 348V346ZM476.43 341.707C472.189 338.445 468.6 334.531 465.661 329.959L463.979 331.041C467.04 335.803 470.785 339.888 475.211 343.293L476.43 341.707ZM465.692 330.01L449.692 301.51L447.948 302.49L463.948 330.99L465.692 330.01ZM1048.39 0.499975H1049.39V-0.500025H1048.39V0.499975ZM1048.39 434H1047.39V435H1048.39V434ZM1087.89 431.5L1088.25 432.433L1088.27 432.427L1088.28 432.419L1087.89 431.5ZM1102.39 420L1101.66 419.318L1101.65 419.328L1101.64 419.338L1102.39 420ZM1262.39 248.5L1263.12 249.182L1263.14 249.16L1263.16 249.136L1262.39 248.5ZM1276.89 235.5L1277.41 236.357L1277.41 236.353L1277.42 236.348L1276.89 235.5ZM1378.39 230.5L1379.12 231.185L1380.7 229.5H1378.39V230.5ZM1191.89 429L1191.16 428.315L1191.13 428.346L1191.11 428.378L1191.89 429ZM1162.89 455.5L1162.37 454.647L1161.03 455.465L1162.34 456.332L1162.89 455.5ZM1178.89 469.5L1178.14 470.158L1178.16 470.184L1178.18 470.207L1178.89 469.5ZM1192.89 487L1192.05 487.545L1192.08 487.584L1192.11 487.621L1192.89 487ZM1390.89 737V738H1392.96L1391.67 736.379L1390.89 737ZM1291.39 733.5L1290.94 734.394L1290.98 734.411L1291.01 734.425L1291.39 733.5ZM1277.39 719.5L1278.25 718.986L1278.21 718.927L1278.17 718.874L1277.39 719.5ZM1110.89 512L1110.08 512.581L1110.09 512.604L1110.11 512.626L1110.89 512ZM1095.89 498.5L1095.44 499.394L1095.48 499.413L1095.52 499.428L1095.89 498.5ZM1048.39 495V494H1047.39V495H1048.39ZM1048.39 737V738H1049.39V737H1048.39ZM958.891 737H957.891V738H958.891V737ZM958.891 0.499975V-0.500025H957.891V0.499975H958.891ZM1047.39 0.499975V434H1049.39V0.499975H1047.39ZM1048.39 435H1071.39V433H1048.39V435ZM1071.39 435C1078.13 435 1083.76 434.159 1088.25 432.433L1087.53 430.567C1083.35 432.175 1077.98 433 1071.39 433V435ZM1088.28 432.419C1093.14 430.339 1098.09 426.39 1103.14 420.662L1101.64 419.338C1096.7 424.944 1091.98 428.661 1087.5 430.581L1088.28 432.419ZM1103.12 420.682L1263.12 249.182L1261.66 247.818L1101.66 419.318L1103.12 420.682ZM1263.16 249.136C1267.77 243.535 1272.52 239.286 1277.41 236.357L1276.38 234.642C1271.26 237.714 1266.34 242.131 1261.62 247.864L1263.16 249.136ZM1277.42 236.348C1282.55 233.145 1289.34 231.5 1297.89 231.5V229.5C1289.1 229.5 1281.9 231.189 1276.36 234.652L1277.42 236.348ZM1297.89 231.5H1378.39V229.5H1297.89V231.5ZM1377.66 229.815L1191.16 428.315L1192.62 429.685L1379.12 231.185L1377.66 229.815ZM1191.11 428.378C1182.17 439.637 1172.58 448.386 1162.37 454.647L1163.41 456.353C1173.86 449.948 1183.61 441.029 1192.67 429.622L1191.11 428.378ZM1162.34 456.332C1168.26 460.284 1173.53 464.893 1178.14 470.158L1179.64 468.841C1174.92 463.441 1169.52 458.716 1163.45 454.668L1162.34 456.332ZM1178.18 470.207C1183.13 475.152 1187.75 480.93 1192.05 487.545L1193.73 486.455C1189.36 479.737 1184.65 473.848 1179.6 468.793L1178.18 470.207ZM1192.11 487.621L1390.11 737.621L1391.67 736.379L1193.67 486.379L1192.11 487.621ZM1390.89 736H1311.39V738H1390.89V736ZM1311.39 736C1303.82 736 1297.29 734.848 1291.77 732.575L1291.01 734.425C1296.82 736.819 1303.62 738 1311.39 738V736ZM1291.84 732.606C1286.72 730.046 1282.18 725.538 1278.25 718.986L1276.53 720.014C1280.6 726.796 1285.4 731.62 1290.94 734.394L1291.84 732.606ZM1278.17 718.874L1111.67 511.374L1110.11 512.626L1276.61 720.126L1278.17 718.874ZM1111.7 511.419C1106.65 504.348 1101.52 499.673 1096.26 497.572L1095.52 499.428C1100.26 501.327 1105.13 505.652 1110.08 512.581L1111.7 511.419ZM1096.34 497.606C1091.46 495.165 1083.93 494 1073.89 494V496C1083.85 496 1090.99 497.169 1095.44 499.394L1096.34 497.606ZM1073.89 494H1048.39V496H1073.89V494ZM1047.39 495V737H1049.39V495H1047.39ZM1048.39 736H958.891V738H1048.39V736ZM959.891 737V0.499975H957.891V737H959.891ZM958.891 1.49998H1048.39V-0.500025H958.891V1.49998ZM1883.2 230.5H1884.2V229.5H1883.2V230.5ZM1883.2 737V738H1884.2V737H1883.2ZM1806.2 718.5L1805.21 718.627L1805.22 718.695L1805.24 718.761L1806.2 718.5ZM1799.2 664L1800.2 663.873L1799.92 661.718L1798.46 663.329L1799.2 664ZM1725.2 723L1725.68 723.881L1725.68 723.877L1725.2 723ZM1557.7 731.5L1557.3 732.414L1557.31 732.418L1557.31 732.421L1557.7 731.5ZM1504.7 692.5L1503.94 693.152L1503.94 693.152L1504.7 692.5ZM1472.2 632L1471.24 632.284L1471.25 632.296L1472.2 632ZM1461.7 230.5V229.5H1460.7V230.5H1461.7ZM1550.7 230.5H1551.7V229.5H1550.7V230.5ZM1576.7 642.5L1575.93 643.137L1575.94 643.144L1576.7 642.5ZM1730.7 655.5L1731.18 656.378L1731.19 656.376L1730.7 655.5ZM1794.2 603.5L1794.95 604.16L1795.2 603.877V603.5H1794.2ZM1794.2 230.5V229.5H1793.2V230.5H1794.2ZM1882.2 230.5V737H1884.2V230.5H1882.2ZM1883.2 736H1830.2V738H1883.2V736ZM1830.2 736C1824.03 736 1819.1 734.5 1815.31 731.583C1811.53 728.665 1808.79 724.251 1807.17 718.239L1805.24 718.761C1806.95 725.082 1809.88 729.918 1814.09 733.167C1818.31 736.416 1823.71 738 1830.2 738V736ZM1807.2 718.373L1800.2 663.873L1798.21 664.127L1805.21 718.627L1807.2 718.373ZM1798.46 663.329C1776.53 687.584 1751.95 707.18 1724.72 722.123L1725.68 723.877C1753.12 708.82 1777.87 689.082 1799.94 664.671L1798.46 663.329ZM1724.73 722.119C1697.56 736.697 1666.39 744 1631.2 744V746C1666.68 746 1698.18 738.636 1725.68 723.881L1724.73 722.119ZM1631.2 744C1603.64 744 1579.28 739.518 1558.09 730.579L1557.31 732.421C1578.79 741.482 1603.43 746 1631.2 746V744ZM1558.11 730.586C1537.24 721.31 1519.69 708.397 1505.46 691.848L1503.94 693.152C1518.38 709.936 1536.17 723.023 1557.3 732.414L1558.11 730.586ZM1505.46 691.848C1491.23 675.298 1480.46 655.256 1473.16 631.704L1471.25 632.296C1478.62 656.077 1489.51 676.369 1503.94 693.152L1505.46 691.848ZM1473.16 631.716C1466.19 608.155 1462.7 582.086 1462.7 553.5H1460.7C1460.7 582.248 1464.21 608.511 1471.24 632.284L1473.16 631.716ZM1462.7 553.5V230.5H1460.7V553.5H1462.7ZM1461.7 231.5H1550.7V229.5H1461.7V231.5ZM1549.7 230.5V553.5H1551.7V230.5H1549.7ZM1549.7 553.5C1549.7 591.972 1558.4 621.897 1575.93 643.137L1577.47 641.863C1560.34 621.103 1551.7 591.694 1551.7 553.5H1549.7ZM1575.94 643.144C1593.85 664.435 1621.01 675 1657.2 675V673C1621.4 673 1594.89 662.565 1577.47 641.856L1575.94 643.144ZM1657.2 675C1683.7 675 1708.36 668.793 1731.18 656.378L1730.23 654.622C1707.71 666.873 1683.37 673 1657.2 673V675ZM1731.19 656.376C1754.3 643.647 1775.55 626.237 1794.95 604.16L1793.45 602.84C1774.19 624.763 1753.11 642.019 1730.22 654.624L1731.19 656.376ZM1795.2 603.5V230.5H1793.2V603.5H1795.2ZM1794.2 231.5H1883.2V229.5H1794.2V231.5ZM2319.32 314L2318.47 313.476L2318.45 313.498L2318.44 313.521L2319.32 314ZM2260.32 307.5L2259.86 308.388L2259.88 308.398L2259.9 308.407L2260.32 307.5ZM2227.82 295L2227.52 295.954L2227.53 295.957L2227.54 295.961L2227.82 295ZM2142.32 295L2142.61 295.956L2142.62 295.953L2142.64 295.949L2142.32 295ZM2111.32 310.5L2110.71 309.707L2110.7 309.713L2110.7 309.719L2111.32 310.5ZM2091.82 334L2090.93 333.54L2090.93 333.546L2090.93 333.553L2091.82 334ZM2096.32 395L2095.56 395.646L2095.56 395.654L2095.57 395.663L2096.32 395ZM2126.32 417.5L2126.78 416.61L2126.78 416.61L2126.32 417.5ZM2168.32 434.5L2168.02 435.453L2168.03 435.456L2168.03 435.458L2168.32 434.5ZM2216.32 450L2215.99 450.945L2216 450.949L2216.02 450.952L2216.32 450ZM2264.82 468L2265.21 467.08L2265.21 467.08L2264.82 468ZM2306.82 493L2307.45 492.223L2307.45 492.223L2306.82 493ZM2336.32 530L2335.43 530.447L2335.43 530.46L2335.44 530.472L2336.32 530ZM2335.32 647L2336.24 647.39L2336.24 647.385L2335.32 647ZM2298.32 698.5L2298.98 699.252L2298.99 699.244L2298.32 698.5ZM2238.32 732.5L2237.99 731.557L2237.99 731.557L2238.32 732.5ZM2060.32 728L2059.94 728.926L2059.95 728.93L2060.32 728ZM1987.32 683.5L1986.47 682.975L1986.03 683.685L1986.65 684.243L1987.32 683.5ZM2008.32 649.5L2009.17 650.025L2009.17 650.024L2008.32 649.5ZM2017.82 639.5L2017.28 638.656L2017.28 638.656L2017.82 639.5ZM2050.82 643L2050.25 643.819L2050.25 643.819L2050.82 643ZM2074.82 658.5L2074.3 659.355L2074.31 659.359L2074.31 659.363L2074.82 658.5ZM2109.82 674L2109.5 674.946L2109.5 674.946L2109.82 674ZM2206.32 674.5L2206.64 675.449L2206.65 675.445L2206.66 675.441L2206.32 674.5ZM2238.82 656L2239.48 656.749L2239.48 656.749L2238.82 656ZM2257.82 629.5L2256.9 629.102L2256.9 629.115L2256.89 629.129L2257.82 629.5ZM2252.82 563L2252.03 563.618L2252.05 563.633L2252.06 563.648L2252.82 563ZM2223.32 539.5L2222.84 540.38L2222.85 540.385L2222.86 540.39L2223.32 539.5ZM2180.82 522.5L2180.52 523.453L2180.53 523.456L2180.54 523.46L2180.82 522.5ZM2132.32 507L2132.01 507.951L2132.02 507.952L2132.32 507ZM2083.82 489L2083.41 489.913L2083.42 489.918L2083.44 489.923L2083.82 489ZM2011.82 425L2010.92 425.431L2010.92 425.443L2010.93 425.455L2011.82 425ZM2012.82 314L2013.73 314.413L2013.73 314.406L2012.82 314ZM2047.82 267L2048.48 267.755L2048.49 267.746L2047.82 267ZM2104.32 234.5L2104.66 235.441L2104.66 235.441L2104.32 234.5ZM2270.32 238.5L2269.94 239.427L2269.95 239.43L2269.96 239.432L2270.32 238.5ZM2339.32 281.5L2340.17 282.024L2340.6 281.333L2340.01 280.774L2339.32 281.5ZM2318.44 313.521C2316.51 317.057 2314.09 319.663 2311.18 321.39C2308.28 323.118 2304.84 324 2300.82 324V326C2305.14 326 2308.94 325.049 2312.21 323.11C2315.47 321.17 2318.13 318.277 2320.2 314.479L2318.44 313.521ZM2300.82 324C2296.06 324 2290.57 322.251 2284.32 318.635L2283.32 320.365C2289.74 324.082 2295.58 326 2300.82 326V324ZM2284.32 318.635C2277.95 314.948 2270.09 310.934 2260.74 306.593L2259.9 308.407C2269.22 312.732 2277.02 316.718 2283.32 320.365L2284.32 318.635ZM2260.78 306.612C2251.71 301.908 2240.81 297.719 2228.1 294.039L2227.54 295.961C2240.16 299.614 2250.93 303.759 2259.86 308.388L2260.78 306.612ZM2228.12 294.046C2215.33 290.008 2200.23 288 2182.82 288V290C2200.08 290 2214.97 291.992 2227.52 295.954L2228.12 294.046ZM2182.82 288C2167.73 288 2154.12 290.012 2142 294.051L2142.64 295.949C2154.52 291.988 2167.91 290 2182.82 290V288ZM2142.03 294.044C2129.93 297.74 2119.49 302.958 2110.71 309.707L2111.93 311.293C2120.49 304.709 2130.71 299.593 2142.61 295.956L2142.03 294.044ZM2110.7 309.719C2102.26 316.468 2095.67 324.409 2090.93 333.54L2092.71 334.46C2097.31 325.591 2103.71 317.865 2111.95 311.281L2110.7 309.719ZM2090.93 333.553C2086.52 342.367 2084.32 352.022 2084.32 362.5H2086.32C2086.32 352.311 2088.46 342.966 2092.71 334.447L2090.93 333.553ZM2084.32 362.5C2084.32 375.7 2088.05 386.773 2095.56 395.646L2097.08 394.354C2089.93 385.894 2086.32 375.3 2086.32 362.5H2084.32ZM2095.57 395.663C2103.33 404.439 2113.44 412.01 2125.86 418.39L2126.78 416.61C2114.53 410.323 2104.64 402.894 2097.07 394.337L2095.57 395.663ZM2125.86 418.39C2138.25 424.752 2152.31 430.439 2168.02 435.453L2168.62 433.547C2153 428.561 2139.05 422.914 2126.78 416.61L2125.86 418.39ZM2168.03 435.458C2183.69 440.121 2199.67 445.283 2215.99 450.945L2216.65 449.055C2200.3 443.384 2184.29 438.213 2168.61 433.542L2168.03 435.458ZM2216.02 450.952C2232.65 456.277 2248.79 462.266 2264.43 468.92L2265.21 467.08C2249.52 460.401 2233.32 454.39 2216.63 449.048L2216.02 450.952ZM2264.43 468.92C2280.02 475.553 2293.93 483.839 2306.19 493.777L2307.45 492.223C2295.04 482.16 2280.96 473.78 2265.21 467.08L2264.43 468.92ZM2306.19 493.777C2318.41 503.684 2328.15 515.904 2335.43 530.447L2337.21 529.553C2329.82 514.763 2319.9 502.316 2307.45 492.223L2306.19 493.777ZM2335.44 530.472C2343.01 544.628 2346.82 561.791 2346.82 582H2348.82C2348.82 561.543 2344.96 544.039 2337.2 529.528L2335.44 530.472ZM2346.82 582C2346.82 605.212 2342.68 626.746 2334.4 646.615L2336.24 647.385C2344.63 627.254 2348.82 605.455 2348.82 582H2346.82ZM2334.4 646.61C2326.13 666.138 2313.88 683.184 2297.65 697.756L2298.99 699.244C2315.43 684.482 2327.85 667.196 2336.24 647.39L2334.4 646.61ZM2297.66 697.748C2281.44 711.986 2261.55 723.259 2237.99 731.557L2238.65 733.443C2262.42 725.074 2282.54 713.681 2298.98 699.252L2297.66 697.748ZM2237.99 731.557C2214.45 739.845 2187.23 744 2156.32 744V746C2187.41 746 2214.86 741.822 2238.65 733.443L2237.99 731.557ZM2156.32 744C2121.09 744 2089.22 738.351 2060.69 727.07L2059.95 728.93C2088.75 740.316 2120.88 746 2156.32 746V744ZM2060.7 727.074C2032.12 715.444 2007.89 700.669 1987.99 682.757L1986.65 684.243C2006.75 702.331 2031.19 717.222 2059.94 728.926L2060.7 727.074ZM1988.17 684.025L2009.17 650.025L2007.47 648.975L1986.47 682.975L1988.17 684.025ZM2009.17 650.024C2011.77 645.798 2014.84 642.583 2018.36 640.344L2017.28 638.656C2013.47 641.084 2010.2 644.535 2007.47 648.976L2009.17 650.024ZM2018.36 640.344C2021.82 638.139 2026.29 637 2031.82 637V635C2026.02 635 2021.15 636.194 2017.28 638.656L2018.36 640.344ZM2031.82 637C2037.55 637 2043.69 639.229 2050.25 643.819L2051.39 642.181C2044.62 637.437 2038.09 635 2031.82 635V637ZM2050.25 643.819C2056.94 648.502 2064.96 653.68 2074.3 659.355L2075.34 657.645C2066.02 651.986 2058.04 646.832 2051.39 642.181L2050.25 643.819ZM2074.31 659.363C2084.05 665.071 2095.78 670.264 2109.5 674.946L2110.14 673.054C2096.52 668.403 2084.92 663.262 2075.33 657.637L2074.31 659.363ZM2109.5 674.946C2123.3 679.66 2140.42 682 2160.82 682V680C2140.56 680 2123.67 677.674 2110.14 673.054L2109.5 674.946ZM2160.82 682C2178.23 682 2193.51 679.824 2206.64 675.449L2206 673.551C2193.13 677.843 2178.07 680 2160.82 680V682ZM2206.66 675.441C2219.76 670.74 2230.7 664.514 2239.48 656.749L2238.16 655.251C2229.6 662.819 2218.89 668.927 2205.98 673.559L2206.66 675.441ZM2239.48 656.749C2248.26 648.987 2254.69 640.027 2258.75 629.871L2256.89 629.129C2252.95 638.973 2246.72 647.68 2238.16 655.251L2239.48 656.749ZM2258.74 629.898C2263.13 619.767 2265.32 608.965 2265.32 597.5H2263.32C2263.32 608.702 2261.18 619.233 2256.9 629.102L2258.74 629.898ZM2265.32 597.5C2265.32 583.308 2261.43 571.565 2253.58 562.352L2252.06 563.648C2259.54 572.435 2263.32 583.692 2263.32 597.5H2265.32ZM2253.61 562.382C2246.17 552.918 2236.22 544.999 2223.78 538.61L2222.86 540.39C2235.09 546.668 2244.8 554.415 2252.03 563.618L2253.61 562.382ZM2223.8 538.62C2211.39 531.914 2197.16 526.223 2181.1 521.54L2180.54 523.46C2196.48 528.11 2210.58 533.752 2222.84 540.38L2223.8 538.62ZM2181.12 521.547C2165.46 516.547 2149.29 511.381 2132.63 506.048L2132.02 507.952C2148.68 513.286 2164.85 518.453 2180.52 523.453L2181.12 521.547ZM2132.63 506.049C2116.32 500.724 2100.18 494.734 2084.2 488.077L2083.44 489.923C2099.46 496.6 2115.65 502.609 2132.01 507.951L2132.63 506.049ZM2084.23 488.087C2068.64 481.122 2054.72 472.504 2042.46 462.233L2041.18 463.767C2053.59 474.163 2067.67 482.878 2083.41 489.913L2084.23 488.087ZM2042.46 462.233C2030.24 451.99 2020.32 439.431 2012.71 424.545L2010.93 425.455C2018.65 440.569 2028.74 453.343 2041.18 463.767L2042.46 462.233ZM2012.72 424.569C2005.47 409.402 2001.82 391.057 2001.82 369.5H1999.82C1999.82 391.276 2003.51 409.932 2010.92 425.431L2012.72 424.569ZM2001.82 369.5C2001.82 350.309 2005.79 331.95 2013.73 314.412L2011.91 313.587C2003.85 331.383 1999.82 350.024 1999.82 369.5H2001.82ZM2013.73 314.406C2021.67 296.544 2033.25 280.995 2048.48 267.755L2047.16 266.245C2031.72 279.672 2019.97 295.456 2011.91 313.594L2013.73 314.406ZM2048.49 267.746C2063.71 254.177 2082.43 243.405 2104.66 235.441L2103.98 233.559C2081.55 241.595 2062.6 252.489 2047.15 266.253L2048.49 267.746ZM2104.66 235.441C2126.86 227.487 2152.25 223.5 2180.82 223.5V221.5C2152.06 221.5 2126.44 225.513 2103.98 233.559L2104.66 235.441ZM2180.82 223.5C2214.05 223.5 2243.75 228.816 2269.94 239.427L2270.7 237.573C2244.22 226.851 2214.26 221.5 2180.82 221.5V223.5ZM2269.96 239.432C2296.51 249.722 2319.4 263.988 2338.63 282.226L2340.01 280.774C2320.57 262.345 2297.46 247.944 2270.68 237.568L2269.96 239.432ZM2338.47 280.976L2318.47 313.476L2320.17 314.524L2340.17 282.024L2338.47 280.976ZM2546.44 298H2545.44V300.52L2547.17 298.686L2546.44 298ZM2618.44 243L2617.98 242.112L2617.98 242.112L2618.44 243ZM2782.44 236.5L2782.03 237.414L2782.04 237.418L2782.05 237.421L2782.44 236.5ZM2835.44 275.5L2834.67 276.136L2834.67 276.144L2834.68 276.152L2835.44 275.5ZM2867.94 336L2868.89 335.704L2868.89 335.704L2867.94 336ZM2878.94 737V738H2879.94V737H2878.94ZM2789.44 737H2788.44V738H2789.44V737ZM2762.94 325.5L2762.16 326.131L2762.17 326.137L2762.17 326.144L2762.94 325.5ZM2609.44 312.5L2608.96 311.624L2608.95 311.627L2609.44 312.5ZM2546.44 364L2545.69 363.334L2545.44 363.619V364H2546.44ZM2546.44 737V738H2547.44V737H2546.44ZM2456.94 737H2455.94V738H2456.94V737ZM2456.94 0.499975V-0.500025H2455.94V0.499975H2456.94ZM2546.44 0.499975H2547.44V-0.500025H2546.44V0.499975ZM2547.17 298.686C2568.76 275.762 2592.67 257.499 2618.9 243.888L2617.98 242.112C2591.54 255.834 2567.45 274.238 2545.71 297.314L2547.17 298.686ZM2618.9 243.888C2645.07 230.306 2675.24 223.5 2709.44 223.5V221.5C2674.97 221.5 2644.47 228.361 2617.98 242.112L2618.9 243.888ZM2709.44 223.5C2736.99 223.5 2761.18 228.148 2782.03 237.414L2782.84 235.586C2761.69 226.186 2737.22 221.5 2709.44 221.5V223.5ZM2782.05 237.421C2803.24 246.362 2820.77 259.267 2834.67 276.136L2836.21 274.864C2822.1 257.733 2804.3 244.638 2782.83 235.579L2782.05 237.421ZM2834.68 276.152C2848.91 292.702 2859.68 312.744 2866.98 336.296L2868.89 335.704C2861.52 311.923 2850.63 291.631 2836.2 274.848L2834.68 276.152ZM2866.98 336.296C2874.28 359.853 2877.94 385.918 2877.94 414.5H2879.94C2879.94 385.748 2876.26 359.48 2868.89 335.704L2866.98 336.296ZM2877.94 414.5V737H2879.94V414.5H2877.94ZM2878.94 736H2789.44V738H2878.94V736ZM2790.44 737V414.5H2788.44V737H2790.44ZM2790.44 414.5C2790.44 376.024 2781.57 346.097 2763.7 324.856L2762.17 326.144C2779.64 346.903 2788.44 376.31 2788.44 414.5H2790.44ZM2763.71 324.869C2746.14 303.236 2719.31 292.5 2683.44 292.5V294.5C2718.9 294.5 2745.07 305.097 2762.16 326.131L2763.71 324.869ZM2683.44 292.5C2656.94 292.5 2632.1 298.876 2608.96 311.624L2609.92 313.376C2632.77 300.791 2657.27 294.5 2683.44 294.5V292.5ZM2608.95 311.627C2586.18 324.354 2565.09 341.594 2545.69 363.334L2547.18 364.666C2566.45 343.072 2587.37 325.979 2609.93 313.373L2608.95 311.627ZM2545.44 364V737H2547.44V364H2545.44ZM2546.44 736H2456.94V738H2546.44V736ZM2457.94 737V0.499975H2455.94V737H2457.94ZM2456.94 1.49998H2546.44V-0.500025H2456.94V1.49998ZM2545.44 0.499975V298H2547.44V0.499975H2545.44ZM3289.05 509H3290.05V507.967L3289.02 508.001L3289.05 509ZM3184.05 519L3184.23 519.985L3184.24 519.983L3184.05 519ZM3113.55 539L3113.14 538.09L3113.13 538.093L3113.55 539ZM3074.05 568.5L3073.25 567.908L3073.24 567.915L3073.24 567.923L3074.05 568.5ZM3068.55 641L3067.64 641.409L3067.64 641.409L3068.55 641ZM3086.05 665L3085.4 665.757L3085.42 665.773L3085.44 665.788L3086.05 665ZM3112.55 678.5L3112.27 679.458L3112.29 679.463L3112.3 679.468L3112.55 678.5ZM3188.55 678L3188.78 678.974L3188.79 678.972L3188.8 678.969L3188.55 678ZM3225.05 664L3224.6 663.111L3224.59 663.116L3225.05 664ZM3258.05 642.5L3257.44 641.712L3257.43 641.717L3257.43 641.722L3258.05 642.5ZM3289.05 614L3289.78 614.684L3290.05 614.395V614H3289.05ZM3001.55 302L3000.86 301.28L3000.3 301.816L3000.68 302.49L3001.55 302ZM3092.05 241.5L3091.67 240.575L3091.67 240.575L3092.05 241.5ZM3275.05 235.5L3275.45 234.579L3275.45 234.579L3275.05 235.5ZM3330.55 274.5L3331.3 273.831L3331.3 273.831L3330.55 274.5ZM3364.55 335L3363.6 335.308L3363.6 335.308L3364.55 335ZM3376.05 737V738H3377.05V737H3376.05ZM3316.55 733L3316.01 733.841L3316.04 733.855L3316.06 733.868L3316.55 733ZM3305.55 716L3304.58 716.204L3304.59 716.255L3304.6 716.305L3305.55 716ZM3295.55 668L3296.53 667.796L3296.17 666.066L3294.88 667.266L3295.55 668ZM3256.55 701L3257.15 701.805L3257.15 701.8L3257.16 701.795L3256.55 701ZM3216.55 725L3216.97 725.911L3216.98 725.907L3216.98 725.903L3216.55 725ZM3171.55 739.5L3171.35 738.521L3171.34 738.524L3171.33 738.526L3171.55 739.5ZM3063.55 737L3063.24 737.95L3063.25 737.953L3063.26 737.956L3063.55 737ZM3018.05 712L3017.4 712.755L3017.41 712.763L3018.05 712ZM2987.55 670.5L2986.64 670.896L2986.64 670.907L2986.65 670.918L2987.55 670.5ZM2993.05 553L2993.91 553.514L2993.92 553.508L2993.05 553ZM3046.55 503.5L3047.06 504.365L3047.06 504.365L3046.55 503.5ZM3143.05 468.5L3143.28 469.475L3143.28 469.473L3143.05 468.5ZM3289.05 452.5L3289.08 453.5L3290.05 453.477V452.5H3289.05ZM3263.55 324L3262.79 324.641L3262.79 324.648L3263.55 324ZM3133.55 302L3133.9 302.94L3133.91 302.935L3133.55 302ZM3095.05 320.5L3095.58 321.348L3095.59 321.344L3095.05 320.5ZM3067.05 339L3067.63 339.821L3067.63 339.816L3067.05 339ZM3028.55 342.5L3027.94 343.293L3027.96 343.308L3027.99 343.322L3028.55 342.5ZM3017.55 330.5L3016.68 330.99L3016.7 331.016L3016.71 331.041L3017.55 330.5ZM3289.02 508.001C3247.99 509.335 3212.94 512.671 3183.87 518.016L3184.24 519.983C3213.17 514.662 3248.12 511.332 3289.09 509.999L3289.02 508.001ZM3183.88 518.015C3155.17 523.024 3131.58 529.709 3113.14 538.09L3113.97 539.91C3132.2 531.624 3155.61 524.976 3184.23 519.985L3183.88 518.015ZM3113.13 538.093C3095.04 546.469 3081.71 556.394 3073.25 567.908L3074.86 569.092C3083.06 557.939 3096.07 548.197 3113.97 539.907L3113.13 538.093ZM3073.24 567.923C3065.12 579.427 3061.05 592.296 3061.05 606.5H3063.05C3063.05 592.704 3066.99 580.24 3074.87 569.077L3073.24 567.923ZM3061.05 606.5C3061.05 619.939 3063.24 631.585 3067.64 641.409L3069.47 640.591C3065.2 631.082 3063.05 619.728 3063.05 606.5H3061.05ZM3067.64 641.409C3072.03 651.197 3077.95 659.319 3085.4 665.757L3086.71 664.243C3079.5 658.014 3073.75 650.137 3069.47 640.591L3067.64 641.409ZM3085.44 665.788C3093.21 671.87 3102.16 676.425 3112.27 679.458L3112.84 677.542C3102.95 674.575 3094.23 670.13 3086.67 664.212L3085.44 665.788ZM3112.3 679.468C3122.73 682.158 3133.81 683.5 3145.55 683.5V681.5C3133.96 681.5 3123.05 680.175 3112.8 677.532L3112.3 679.468ZM3145.55 683.5C3161.28 683.5 3175.69 681.994 3188.78 678.974L3188.33 677.026C3175.42 680.006 3161.16 681.5 3145.55 681.5V683.5ZM3188.8 678.969C3201.88 675.617 3214.12 670.922 3225.52 664.884L3224.59 663.116C3213.33 669.078 3201.23 673.717 3188.31 677.031L3188.8 678.969ZM3225.51 664.889C3237.24 658.858 3248.3 651.654 3258.68 643.278L3257.43 641.722C3247.15 650.013 3236.2 657.142 3224.6 663.111L3225.51 664.889ZM3258.67 643.288C3269.38 634.921 3279.75 625.385 3289.78 614.684L3288.33 613.316C3278.36 623.948 3268.06 633.413 3257.44 641.712L3258.67 643.288ZM3290.05 614V509H3288.05V614H3290.05ZM3002.25 302.72C3030.17 275.797 3060.23 255.705 3092.44 242.424L3091.67 240.575C3059.21 253.962 3028.94 274.203 3000.86 301.28L3002.25 302.72ZM3092.44 242.424C3124.63 229.147 3160.34 222.5 3199.55 222.5V220.5C3160.11 220.5 3124.14 227.186 3091.67 240.575L3092.44 242.424ZM3199.55 222.5C3227.78 222.5 3252.81 227.148 3274.66 236.421L3275.45 234.579C3253.3 225.185 3228 220.5 3199.55 220.5V222.5ZM3274.66 236.421C3296.54 245.701 3314.92 258.618 3329.81 275.169L3331.3 273.831C3316.19 257.049 3297.57 243.966 3275.45 234.579L3274.66 236.421ZM3329.81 275.169C3344.71 291.72 3355.98 311.76 3363.6 335.308L3365.51 334.692C3357.8 310.906 3346.4 290.613 3331.3 273.831L3329.81 275.169ZM3363.6 335.308C3371.23 358.863 3375.05 384.757 3375.05 413H3377.05C3377.05 384.576 3373.21 358.471 3365.51 334.692L3363.6 335.308ZM3375.05 413V737H3377.05V413H3375.05ZM3376.05 736H3336.55V738H3376.05V736ZM3336.55 736C3327.97 736 3321.5 734.675 3317.05 732.132L3316.06 733.868C3320.94 736.659 3327.81 738 3336.55 738V736ZM3317.1 732.159C3312.71 729.339 3309.14 723.928 3306.51 715.695L3304.6 716.305C3307.3 724.739 3311.07 730.661 3316.01 733.841L3317.1 732.159ZM3306.53 715.796L3296.53 667.796L3294.58 668.204L3304.58 716.204L3306.53 715.796ZM3294.88 667.266C3281.56 679.581 3268.59 690.56 3255.95 700.205L3257.16 701.795C3269.86 692.107 3282.88 681.086 3296.23 668.734L3294.88 667.266ZM3255.96 700.195C3243.35 709.491 3230.07 717.458 3216.12 724.097L3216.98 725.903C3231.04 719.208 3244.43 711.176 3257.15 701.805L3255.96 700.195ZM3216.14 724.089C3202.21 730.39 3187.28 735.202 3171.35 738.521L3171.76 740.479C3187.83 737.132 3202.9 732.276 3216.97 725.911L3216.14 724.089ZM3171.33 738.526C3155.75 742.172 3138.33 744 3119.05 744V746C3138.45 746 3156.03 744.161 3171.78 740.474L3171.33 738.526ZM3119.05 744C3099.48 744 3081.08 741.346 3063.85 736.044L3063.26 737.956C3080.7 743.321 3099.3 746 3119.05 746V744ZM3063.87 736.05C3046.65 730.42 3031.6 722.147 3018.7 711.237L3017.41 712.763C3030.51 723.853 3045.8 732.247 3063.24 737.95L3063.87 736.05ZM3018.71 711.245C3006.16 700.347 2996.08 686.632 2988.46 670.082L2986.65 670.918C2994.37 687.701 3004.62 701.653 3017.4 712.755L3018.71 711.245ZM2988.47 670.104C2981.2 653.255 2977.55 633.396 2977.55 610.5H2975.55C2975.55 633.604 2979.24 653.745 2986.64 670.896L2988.47 670.104ZM2977.55 610.5C2977.55 590.694 2983 571.704 2993.91 553.514L2992.2 552.485C2981.11 570.963 2975.55 590.306 2975.55 610.5H2977.55ZM2993.92 553.508C3004.81 535.028 3022.49 518.638 3047.06 504.365L3046.05 502.635C3021.28 517.028 3003.3 533.638 2992.19 552.492L2993.92 553.508ZM3047.06 504.365C3071.61 490.099 3103.67 478.461 3143.28 469.475L3142.83 467.525C3103.11 476.538 3070.84 488.235 3046.05 502.635L3047.06 504.365ZM3143.28 469.473C3182.86 460.161 3231.45 454.832 3289.08 453.5L3289.03 451.5C3231.32 452.835 3182.58 458.172 3142.83 467.527L3143.28 469.473ZM3290.05 452.5V413H3288.05V452.5H3290.05ZM3290.05 413C3290.05 373.544 3281.53 343.604 3264.32 323.352L3262.79 324.648C3279.58 344.396 3288.05 373.79 3288.05 413H3290.05ZM3264.32 323.359C3247.09 302.746 3221.94 292.5 3189.05 292.5V294.5C3221.5 294.5 3246.02 304.587 3262.79 324.641L3264.32 323.359ZM3189.05 292.5C3166.98 292.5 3148.35 295.343 3133.2 301.064L3133.91 302.935C3148.76 297.324 3167.13 294.5 3189.05 294.5V292.5ZM3133.21 301.06C3118.49 306.414 3105.59 312.611 3094.52 319.656L3095.59 321.344C3106.52 314.389 3119.29 308.253 3133.9 302.94L3133.21 301.06ZM3094.52 319.652C3083.85 326.326 3074.5 332.504 3066.48 338.184L3067.63 339.816C3075.61 334.163 3084.93 328.007 3095.58 321.348L3094.52 319.652ZM3066.48 338.179C3058.95 343.422 3051.48 346 3044.05 346V348C3051.97 348 3059.83 345.245 3067.63 339.821L3066.48 338.179ZM3044.05 346C3038.23 346 3033.27 344.546 3029.12 341.678L3027.99 343.322C3032.51 346.454 3037.88 348 3044.05 348V346ZM3029.16 341.707C3024.92 338.445 3021.33 334.531 3018.4 329.959L3016.71 331.041C3019.77 335.803 3023.52 339.888 3027.94 343.293L3029.16 341.707ZM3018.43 330.01L3002.43 301.51L3000.68 302.49L3016.68 330.99L3018.43 330.01Z" fill="black"/>
</svg>
